<?xml version="1.0" encoding="UTF-8"?>
<svg xmlns="http://www.w3.org/2000/svg" xmlns:xlink="http://www.w3.org/1999/xlink" width="180px" height="180px" viewBox="0 0 180 179" version="1.1">
<path style=" stroke:none;fill-rule:nonzero;fill:#317fe7;fill-opacity:1;" d="M 101.742188 0.195312 C 101.515625 0.308594 101.152344 0.558594 100.953125 0.785156 C 100.757812 1.007812 98.804688 4.523438 96.609375 8.609375 C 94.414062 12.6875 92.417969 16.355469 92.164062 16.761719 C 91.421875 17.9375 91.476562 17.921875 87.554688 18.078125 L 84.078125 18.230469 L 83.335938 17.867188 C 82.589844 17.503906 82.503906 17.390625 77.484375 10.179688 C 74.671875 6.160156 72.238281 2.675781 72.054688 2.4375 C 71.648438 1.890625 70.929688 1.539062 70.199219 1.539062 C 69.59375 1.539062 53.691406 6.804688 53.140625 7.183594 C 52.328125 7.757812 52.15625 8.429688 52.3125 10.472656 C 52.648438 14.617188 53.3125 22.964844 53.453125 24.882812 L 53.621094 27.023438 L 53.210938 27.820312 C 52.820312 28.59375 52.679688 28.71875 49.921875 30.621094 C 48.332031 31.714844 46.8125 32.679688 46.546875 32.765625 C 45.394531 33.101562 45.253906 33.058594 36.195312 29.320312 C 26.902344 25.484375 27.167969 25.582031 26.070312 26.070312 C 25.539062 26.324219 15.089844 39.261719 14.878906 39.933594 C 14.765625 40.339844 14.765625 40.605469 14.878906 41.011719 C 14.992188 41.363281 17.015625 44.132812 20.53125 48.742188 C 25.285156 54.984375 26.03125 56.035156 26.171875 56.636719 C 26.367188 57.546875 26.367188 57.546875 24.539062 61.886719 C 22.921875 65.765625 22.554688 66.3125 21.460938 66.703125 C 21.136719 66.816406 16.902344 67.628906 12.023438 68.496094 C 2.742188 70.148438 2.699219 70.164062 2.082031 71.003906 C 1.351562 71.984375 -0.464844 88.757812 0.125 89.109375 C 0.210938 89.164062 4.246094 90.648438 9.085938 92.414062 C 13.921875 94.175781 18.085938 95.746094 18.324219 95.886719 C 19.25 96.417969 19.460938 97.019531 20.304688 101.667969 C 20.742188 104.035156 21.09375 106.261719 21.09375 106.636719 C 21.09375 107.074219 20.96875 107.546875 20.769531 107.914062 C 20.558594 108.320312 18.421875 110.390625 13.851562 114.621094 C 10.210938 117.980469 7.117188 120.933594 6.960938 121.160156 C 6.777344 121.453125 6.695312 121.816406 6.707031 122.292969 C 6.707031 122.9375 7.058594 123.652344 10.292969 129.910156 C 12.277344 133.703125 14.0625 136.996094 14.273438 137.21875 C 14.46875 137.429688 14.90625 137.679688 15.230469 137.765625 C 15.777344 137.917969 16.453125 137.792969 24.609375 135.957031 C 33.804688 133.886719 34.128906 133.84375 35.15625 134.320312 C 35.703125 134.585938 42.242188 141.308594 42.636719 142.007812 C 43.171875 142.988281 43.144531 143.265625 41.710938 148.839844 C 38.40625 161.679688 38.476562 161.398438 38.65625 162 C 38.742188 162.308594 38.96875 162.714844 39.136719 162.910156 C 39.304688 163.109375 42.539062 165 46.320312 167.113281 C 52.550781 170.597656 53.269531 170.964844 53.84375 170.964844 C 54.226562 170.964844 54.675781 170.851562 54.914062 170.710938 C 55.152344 170.558594 58.148438 167.601562 61.59375 164.117188 C 65.039062 160.628906 68.078125 157.660156 68.371094 157.519531 C 69.398438 156.976562 69.679688 157.003906 74.828125 158.152344 C 77.484375 158.738281 79.820312 159.3125 80 159.4375 C 80.972656 160.070312 81.027344 160.195312 84.023438 169.15625 C 86.851562 177.601562 86.933594 177.824219 87.46875 178.300781 C 87.777344 178.578125 88.242188 178.832031 88.550781 178.886719 C 89.832031 179.125 97.804688 178.621094 102.894531 177.976562 C 105.203125 177.683594 105.695312 177.445312 106.085938 176.394531 C 106.214844 176.058594 107.140625 171.886719 108.140625 167.125 C 109.351562 161.441406 110.066406 158.304688 110.234375 158.023438 C 110.785156 157.15625 111.191406 156.945312 115.480469 155.324219 C 120.109375 153.558594 120.699219 153.433594 121.726562 153.980469 C 121.976562 154.117188 125.210938 156.652344 128.898438 159.621094 C 132.59375 162.589844 135.800781 165.125 136.039062 165.265625 C 136.351562 165.445312 136.671875 165.503906 137.207031 165.460938 C 137.925781 165.417969 138.078125 165.304688 142.117188 162.269531 C 150.3125 156.09375 151.085938 155.492188 151.355469 155.113281 C 151.507812 154.917969 151.664062 154.441406 151.691406 154.0625 C 151.761719 153.445312 151.480469 152.632812 148.5 144.847656 C 146.699219 140.144531 145.195312 136.085938 145.167969 135.816406 C 145.027344 134.851562 145.351562 134.25 147.601562 131.167969 C 148.808594 129.53125 149.933594 128.03125 150.101562 127.863281 C 150.59375 127.320312 151.4375 126.953125 152.226562 126.96875 C 152.605469 126.96875 156.8125 127.390625 161.550781 127.90625 L 170.15625 128.832031 L 170.761719 128.566406 C 171.085938 128.410156 171.464844 128.171875 171.605469 128.019531 C 171.800781 127.796875 176.722656 114.660156 177.539062 112.183594 C 177.847656 111.273438 177.652344 110.503906 176.933594 109.773438 C 176.652344 109.480469 173.164062 106.863281 169.1875 103.949219 C 162.042969 98.726562 161.957031 98.65625 161.605469 97.886719 L 161.253906 97.117188 L 161.421875 94.105469 C 161.648438 90.171875 161.675781 89.988281 162.195312 89.234375 C 162.617188 88.632812 162.941406 88.449219 170.816406 84.515625 C 175.332031 82.261719 179.113281 80.328125 179.242188 80.230469 C 179.550781 79.964844 180 79.039062 180 78.664062 C 180 78.074219 176.359375 61.621094 176.132812 61.1875 C 176.007812 60.949219 175.683594 60.613281 175.386719 60.417969 C 174.796875 60.039062 175.402344 60.082031 161.140625 59.171875 C 155.671875 58.820312 155.574219 58.792969 154.742188 58.011719 C 154.140625 57.4375 151.609375 52.6875 151.507812 51.933594 C 151.453125 51.554688 151.507812 51.09375 151.621094 50.757812 C 151.734375 50.449219 153.898438 46.710938 156.429688 42.453125 C 160.847656 35.0625 161.042969 34.695312 161.042969 34.023438 C 161.03125 33.648438 160.945312 33.183594 160.847656 32.988281 C 160.664062 32.636719 148.894531 20.609375 148.21875 20.09375 C 148.007812 19.925781 147.585938 19.796875 147.09375 19.769531 L 146.292969 19.714844 L 138.359375 24.097656 C 134 26.503906 130.175781 28.5625 129.867188 28.675781 C 128.898438 29.011719 128.265625 28.800781 125.648438 27.34375 C 123.003906 25.875 122.722656 25.664062 122.316406 24.867188 C 121.949219 24.167969 121.964844 24.347656 121.625 14.351562 C 121.34375 6.089844 121.332031 5.796875 121.023438 5.179688 C 120.5 4.128906 121.527344 4.4375 107.183594 1.035156 C 104.765625 0.476562 102.640625 0 102.472656 0 C 102.304688 0.015625 101.980469 0.0976562 101.742188 0.195312 Z M 96.328125 37.300781 C 100.195312 37.804688 103.402344 38.519531 106.734375 39.625 C 124.4375 45.449219 137.996094 60.628906 141.664062 78.71875 C 142.46875 82.679688 142.648438 84.585938 142.648438 89.191406 C 142.664062 93.53125 142.59375 94.597656 142.015625 98.082031 C 139.316406 114.453125 128.585938 128.84375 113.554688 136.238281 C 107.859375 139.039062 102.9375 140.507812 96.046875 141.445312 C 93.894531 141.742188 86.046875 141.683594 83.671875 141.378906 C 71.382812 139.710938 60.664062 134.390625 52.3125 125.792969 C 40.375 113.5 35.269531 96.558594 38.390625 79.585938 C 40.445312 68.425781 46.53125 57.773438 55.210938 50.140625 C 63.773438 42.621094 74.222656 38.15625 85.710938 37.117188 C 87.835938 36.921875 94.261719 37.035156 96.328125 37.300781 Z M 96.328125 37.300781 "/>
</svg>
